<svg xmlns="http://www.w3.org/2000/svg" xmlns:xlink="http://www.w3.org/1999/xlink" width="2000" zoomAndPan="magnify" viewBox="0 0 1500 1499.999933" height="2000" preserveAspectRatio="xMidYMid meet" version="1.0"><defs><g/><clipPath id="10e8e5a804"><path d="M 792 858 L 1284.484375 858 L 1284.484375 1022 L 792 1022 Z M 792 858 " clip-rule="nonzero"/></clipPath><clipPath id="6e3efe7aae"><path d="M 215.734375 858 L 708 858 L 708 1022 L 215.734375 1022 Z M 215.734375 858 " clip-rule="nonzero"/></clipPath><clipPath id="bead534df5"><path d="M 705 1016 L 795 1016 L 795 1031.914062 L 705 1031.914062 Z M 705 1016 " clip-rule="nonzero"/></clipPath><clipPath id="d3d5b7e09b"><path d="M 651 466.101562 L 802.976562 466.101562 L 802.976562 610.851562 L 651 610.851562 Z M 651 466.101562 " clip-rule="nonzero"/></clipPath><clipPath id="a4fe752647"><path d="M 502.207031 572.746094 L 636.457031 572.746094 L 636.457031 700.996094 L 502.207031 700.996094 Z M 502.207031 572.746094 " clip-rule="nonzero"/></clipPath><clipPath id="de48a165ca"><path d="M 817 572.746094 L 956.441406 572.746094 L 956.441406 705.496094 L 817 705.496094 Z M 817 572.746094 " clip-rule="nonzero"/></clipPath></defs><g clip-path="url(#10e8e5a804)"><path fill="#000000" d="M 792.554688 1021.339844 C 792.554688 1021.339844 918.585938 819.632812 1190.867188 864.550781 L 1284.492188 937.097656 C 1284.492188 937.097656 994.835938 813.175781 792.554688 1021.339844 " fill-opacity="1" fill-rule="nonzero"/></g><path fill="#000000" d="M 781.042969 1005.152344 C 781.042969 1005.152344 913.117188 785.726562 1165.542969 830.515625 C 1165.542969 830.515625 928.113281 743.078125 781.042969 1005.152344 " fill-opacity="1" fill-rule="nonzero"/><path fill="#000000" d="M 766.65625 1000.546875 C 766.65625 1000.546875 873.890625 767.976562 1129.707031 784.859375 C 1129.707031 784.859375 884.121094 723.945312 766.65625 1000.546875 " fill-opacity="1" fill-rule="nonzero"/><path fill="#000000" d="M 751.046875 1005.496094 C 751.046875 1005.496094 825.535156 760.480469 1081.265625 742.316406 C 1081.265625 742.316406 829.660156 715.46875 751.046875 1005.496094 " fill-opacity="1" fill-rule="nonzero"/><g clip-path="url(#6e3efe7aae)"><path fill="#000000" d="M 707.667969 1021.339844 C 707.667969 1021.339844 581.636719 819.640625 309.359375 864.550781 L 215.734375 937.101562 C 215.734375 937.101562 505.394531 813.179688 707.667969 1021.339844 " fill-opacity="1" fill-rule="nonzero"/></g><path fill="#000000" d="M 719.171875 1005.148438 C 719.171875 1005.148438 587.097656 785.71875 334.671875 830.511719 C 334.671875 830.511719 572.105469 743.070312 719.171875 1005.148438 " fill-opacity="1" fill-rule="nonzero"/><path fill="#000000" d="M 733.570312 1000.546875 C 733.570312 1000.546875 626.332031 767.976562 370.515625 784.859375 C 370.515625 784.859375 616.101562 723.945312 733.570312 1000.546875 " fill-opacity="1" fill-rule="nonzero"/><path fill="#000000" d="M 749.179688 1005.496094 C 749.179688 1005.496094 674.6875 760.480469 418.960938 742.316406 C 418.960938 742.316406 670.5625 715.46875 749.179688 1005.496094 " fill-opacity="1" fill-rule="nonzero"/><g clip-path="url(#bead534df5)"><path fill="#000000" d="M 750.109375 1016.316406 C 722.996094 1015.910156 705.324219 1031.871094 705.324219 1031.871094 L 794.902344 1031.871094 C 778.386719 1020.476562 763.160156 1016.503906 750.109375 1016.316406 " fill-opacity="1" fill-rule="nonzero"/></g><g clip-path="url(#d3d5b7e09b)"><path fill="#000000" d="M 727.195312 582.269531 L 774.257812 610.582031 L 761.765625 557.226562 L 803.34375 521.324219 L 748.59375 516.695312 L 727.195312 466.371094 L 705.796875 516.695312 L 651.050781 521.324219 L 692.625 557.226562 L 680.136719 610.582031 Z M 727.195312 582.269531 " fill-opacity="1" fill-rule="nonzero"/></g><g fill="#000000" fill-opacity="1"><g transform="translate(60.680677, 1176.056185)"><g><path d="M 83.234375 -19.761719 L 64.671875 -44.910156 C 83.085938 -49.402344 94.316406 -61.679688 94.316406 -77.25 C 94.316406 -95.660156 78.894531 -104.792969 54.792969 -104.792969 L 2.246094 -104.792969 L 2.246094 -104.046875 C 8.382812 -103.296875 13.625 -101.648438 13.625 -96.261719 L 13.625 -8.535156 C 13.625 -3.144531 8.382812 -1.496094 2.246094 -0.75 L 2.246094 0 L 40.269531 0 L 40.269531 -0.75 C 34.132812 -1.496094 28.894531 -3.144531 28.894531 -8.535156 L 28.894531 -42.964844 L 49.253906 -42.964844 L 78.445312 -2.546875 L 78.445312 0 L 105.542969 0 L 105.542969 -0.449219 C 97.757812 -4.339844 92.070312 -7.636719 83.234375 -19.761719 Z M 28.894531 -48.953125 L 28.894531 -102.097656 L 46.707031 -102.097656 C 74.851562 -102.097656 79.34375 -86.679688 79.34375 -71.707031 C 79.34375 -50.898438 70.960938 -45.660156 52.398438 -45.660156 C 44.3125 -45.660156 36.828125 -46.707031 28.894531 -48.953125 Z M 28.894531 -48.953125 "/></g></g></g><g fill="#000000" fill-opacity="1"><g transform="translate(187.032471, 1176.056185)"><g><path d="M 2.246094 0 L 40.269531 0 L 40.269531 -0.75 C 34.132812 -1.496094 28.894531 -3.144531 28.894531 -8.535156 L 28.894531 -96.261719 C 28.894531 -101.648438 34.132812 -103.296875 40.269531 -104.046875 L 40.269531 -104.792969 L 2.246094 -104.792969 L 2.246094 -104.046875 C 8.382812 -103.296875 13.625 -101.648438 13.625 -96.261719 L 13.625 -8.535156 C 13.625 -3.144531 8.382812 -1.496094 2.246094 -0.75 Z M 2.246094 0 "/></g></g></g><g fill="#000000" fill-opacity="1"><g transform="translate(251.855104, 1176.056185)"><g><path d="M 104.046875 0 C 96.261719 -3.890625 92.070312 -7.335938 81.738281 -19.761719 L 46.257812 -61.828125 L 71.859375 -86.679688 C 85.03125 -99.554688 94.613281 -103.148438 100.902344 -103.894531 L 101.199219 -104.792969 L 71.859375 -104.792969 L 71.558594 -103.894531 C 82.636719 -102.699219 81.140625 -99.40625 78.296875 -96.710938 L 28.894531 -48.804688 L 28.894531 -96.261719 C 28.894531 -101.648438 34.132812 -103.296875 40.269531 -104.046875 L 40.269531 -104.792969 L 2.246094 -104.792969 L 2.246094 -104.046875 C 8.382812 -103.296875 13.625 -101.648438 13.625 -96.261719 L 13.625 -8.535156 C 13.625 -3.144531 8.382812 -1.496094 2.246094 -0.75 L 2.246094 0 L 40.269531 0 L 40.269531 -0.75 C 34.132812 -1.496094 28.894531 -3.144531 28.894531 -8.535156 L 28.894531 -48.65625 L 38.773438 -48.65625 L 77.097656 -2.546875 L 77.097656 0 Z M 104.046875 0 "/></g></g></g><g fill="#000000" fill-opacity="1"><g transform="translate(378.955379, 1176.056185)"><g><path d="M 51.347656 -59.734375 C 35.628906 -63.324219 21.109375 -68.414062 21.109375 -85.480469 C 21.109375 -95.660156 26.199219 -104.34375 40.421875 -104.34375 C 57.1875 -104.34375 72.605469 -92.367188 70.210938 -72.15625 L 83.535156 -93.265625 C 75.601562 -100.902344 64.222656 -106.890625 47.15625 -106.890625 C 23.652344 -106.890625 8.980469 -95.511719 8.980469 -78.144531 C 8.980469 -66.019531 16.019531 -51.949219 44.3125 -45.210938 C 62.128906 -41.019531 73.503906 -36.976562 73.503906 -21.855469 C 73.503906 -12.125 68.863281 -0.597656 51.648438 -0.597656 C 33.832031 -0.597656 16.765625 -12.574219 19.011719 -32.785156 L 5.988281 -11.976562 C 14.074219 -4.191406 27.546875 2.097656 45.0625 2.097656 C 71.410156 2.097656 85.332031 -12.277344 85.332031 -29.191406 C 85.332031 -39.671875 80.09375 -53.144531 51.347656 -59.734375 Z M 51.347656 -59.734375 "/></g></g></g><g fill="#000000" fill-opacity="1"><g transform="translate(492.582117, 1176.056185)"><g><path d="M 102.546875 -18.863281 L 70.960938 -98.65625 C 67.816406 -106.441406 67.667969 -107.636719 67.667969 -108.835938 L 53.746094 -99.703125 L 51.347656 -98.058594 L 51.648438 -94.761719 L 18.414062 -18.113281 C 12.875 -5.238281 9.28125 -2.394531 2.992188 -0.597656 L 2.992188 0 L 30.539062 0 L 30.539062 -0.597656 C 22.15625 -2.394531 16.167969 -5.089844 21.707031 -17.964844 L 25 -25.449219 L 83.535156 -25.449219 L 86.53125 -17.964844 C 91.769531 -4.789062 85.78125 -1.496094 75.300781 -0.597656 L 75.300781 0 L 117.371094 0 L 117.371094 -0.597656 C 110.632812 -1.496094 107.9375 -5.089844 102.546875 -18.863281 Z M 26.046875 -28.144531 L 55.390625 -95.8125 L 82.488281 -28.144531 Z M 26.046875 -28.144531 "/></g></g></g><g fill="#000000" fill-opacity="1"><g transform="translate(635.251839, 1176.056185)"><g><path d="M 104.046875 0 C 96.261719 -3.890625 92.070312 -7.335938 81.738281 -19.761719 L 46.257812 -61.828125 L 71.859375 -86.679688 C 85.03125 -99.554688 94.613281 -103.148438 100.902344 -103.894531 L 101.199219 -104.792969 L 71.859375 -104.792969 L 71.558594 -103.894531 C 82.636719 -102.699219 81.140625 -99.40625 78.296875 -96.710938 L 28.894531 -48.804688 L 28.894531 -96.261719 C 28.894531 -101.648438 34.132812 -103.296875 40.269531 -104.046875 L 40.269531 -104.792969 L 2.246094 -104.792969 L 2.246094 -104.046875 C 8.382812 -103.296875 13.625 -101.648438 13.625 -96.261719 L 13.625 -8.535156 C 13.625 -3.144531 8.382812 -1.496094 2.246094 -0.75 L 2.246094 0 L 40.269531 0 L 40.269531 -0.75 C 34.132812 -1.496094 28.894531 -3.144531 28.894531 -8.535156 L 28.894531 -48.65625 L 38.773438 -48.65625 L 77.097656 -2.546875 L 77.097656 0 Z M 104.046875 0 "/></g></g></g><g fill="#000000" fill-opacity="1"><g transform="translate(762.352133, 1176.056185)"><g><path d="M 102.546875 -18.863281 L 70.960938 -98.65625 C 67.816406 -106.441406 67.667969 -107.636719 67.667969 -108.835938 L 53.746094 -99.703125 L 51.347656 -98.058594 L 51.648438 -94.761719 L 18.414062 -18.113281 C 12.875 -5.238281 9.28125 -2.394531 2.992188 -0.597656 L 2.992188 0 L 30.539062 0 L 30.539062 -0.597656 C 22.15625 -2.394531 16.167969 -5.089844 21.707031 -17.964844 L 25 -25.449219 L 83.535156 -25.449219 L 86.53125 -17.964844 C 91.769531 -4.789062 85.78125 -1.496094 75.300781 -0.597656 L 75.300781 0 L 117.371094 0 L 117.371094 -0.597656 C 110.632812 -1.496094 107.9375 -5.089844 102.546875 -18.863281 Z M 26.046875 -28.144531 L 55.390625 -95.8125 L 82.488281 -28.144531 Z M 26.046875 -28.144531 "/></g></g></g><g fill="#000000" fill-opacity="1"><g transform="translate(905.021888, 1176.056185)"><g><path d="M 48.804688 -104.792969 L 2.246094 -104.792969 L 2.246094 -104.046875 C 8.382812 -103.296875 13.625 -101.648438 13.625 -96.261719 L 13.625 -11.527344 C 13.625 -6.136719 8.382812 -2.992188 2.246094 -0.75 L 2.246094 0 L 45.808594 0 C 79.042969 0 105.542969 -19.613281 105.542969 -55.089844 C 105.542969 -86.53125 85.03125 -104.792969 48.804688 -104.792969 Z M 49.550781 -2.394531 C 40.871094 -2.394531 34.433594 -4.339844 28.894531 -7.035156 L 28.894531 -102.398438 L 42.816406 -102.398438 C 75.75 -102.398438 89.074219 -79.042969 89.074219 -47.15625 C 89.074219 -12.574219 73.503906 -2.394531 49.550781 -2.394531 Z M 49.550781 -2.394531 "/></g></g></g><g fill="#000000" fill-opacity="1"><g transform="translate(1038.858946, 1176.056185)"><g><path d="M 92.21875 -29.191406 C 80.542969 -11.828125 73.65625 -2.394531 57.039062 -2.394531 L 28.894531 -2.394531 L 28.894531 -51.199219 L 49.851562 -51.199219 C 65.722656 -51.199219 70.210938 -47.15625 73.804688 -36.078125 L 73.804688 -68.714844 C 70.210938 -57.636719 65.722656 -53.59375 49.851562 -53.59375 L 28.894531 -53.59375 L 28.894531 -102.398438 L 54.042969 -102.398438 C 70.660156 -102.398438 76.800781 -94.914062 86.828125 -80.691406 L 87.429688 -80.992188 L 82.488281 -104.792969 L 2.246094 -104.792969 L 2.246094 -104.046875 C 8.382812 -103.296875 13.625 -101.648438 13.625 -96.261719 L 13.625 -11.527344 C 13.625 -6.136719 8.382812 -2.992188 2.246094 -0.75 L 2.246094 0 L 79.492188 0 L 84.582031 3.292969 L 85.480469 0 L 92.816406 -28.894531 Z M 92.21875 -29.191406 "/></g></g></g><g fill="#000000" fill-opacity="1"><g transform="translate(1156.228369, 1176.056185)"><g><path d="M 127.847656 -104.046875 L 127.847656 -104.792969 L 101.199219 -104.792969 L 65.421875 -20.210938 L 23.054688 -104.792969 L 1.496094 -104.792969 C 7.933594 -100.003906 10.777344 -95.511719 13.625 -89.824219 L 13.625 -23.503906 C 13.625 -3.144531 8.382812 -1.496094 2.246094 -0.75 L 2.246094 0 L 27.996094 0 L 27.996094 -0.75 C 21.855469 -1.496094 16.617188 -6.136719 16.617188 -26.496094 L 16.617188 -83.835938 L 59.433594 1.648438 L 101.199219 -97.007812 L 101.199219 -8.535156 C 101.199219 -3.144531 95.960938 -1.496094 89.824219 -0.75 L 89.824219 0 L 127.847656 0 L 127.847656 -0.75 C 121.710938 -1.496094 116.472656 -3.144531 116.472656 -8.535156 L 116.472656 -96.261719 C 116.472656 -101.648438 121.710938 -103.296875 127.847656 -104.046875 Z M 127.847656 -104.046875 "/></g></g></g><g fill="#000000" fill-opacity="1"><g transform="translate(1308.628925, 1176.056185)"><g><path d="M 2.246094 0 L 40.269531 0 L 40.269531 -0.75 C 34.132812 -1.496094 28.894531 -3.144531 28.894531 -8.535156 L 28.894531 -96.261719 C 28.894531 -101.648438 34.132812 -103.296875 40.269531 -104.046875 L 40.269531 -104.792969 L 2.246094 -104.792969 L 2.246094 -104.046875 C 8.382812 -103.296875 13.625 -101.648438 13.625 -96.261719 L 13.625 -8.535156 C 13.625 -3.144531 8.382812 -1.496094 2.246094 -0.75 Z M 2.246094 0 "/></g></g></g><g fill="#000000" fill-opacity="1"><g transform="translate(1373.451513, 1176.056185)"><g><path d="M 81.890625 -104.792969 L 81.890625 -104.046875 C 88.027344 -103.296875 93.265625 -98.65625 93.265625 -78.296875 L 93.265625 -23.953125 L 32.1875 -96.710938 C 29.042969 -100.300781 27.695312 -102.996094 26.648438 -104.792969 L 1.496094 -104.792969 C 6.289062 -102.398438 10.03125 -98.957031 15.121094 -92.96875 L 15.121094 -23.503906 C 15.121094 -3.144531 9.878906 -1.496094 3.742188 -0.75 L 3.742188 0 L 29.492188 0 L 29.492188 -0.75 C 23.355469 -1.496094 18.113281 -6.136719 18.113281 -26.496094 L 18.113281 -89.375 L 96.859375 4.191406 L 97.160156 3.890625 C 96.859375 -1.496094 96.410156 -9.28125 96.410156 -24.851562 L 96.410156 -81.289062 C 96.410156 -101.648438 101.648438 -103.296875 107.789062 -104.046875 L 107.789062 -104.792969 Z M 81.890625 -104.792969 "/></g></g></g><g fill="#000000" fill-opacity="1"><g transform="translate(20.579907, 1295.320388)"><g><path d="M 13.203125 -44.65625 L 13.203125 -25.34375 L 38.609375 -25.34375 L 38.609375 -20.84375 L 13.203125 -20.84375 L 13.203125 0 L 8 0 L 8 -49.140625 L 41.703125 -49.140625 L 41.703125 -44.65625 Z M 13.203125 -44.65625 "/></g></g></g><g fill="#000000" fill-opacity="1"><g transform="translate(78.282672, 1295.320388)"><g><path d="M 29.484375 0.421875 C 24.617188 0.421875 20.207031 -0.664062 16.25 -2.84375 C 12.289062 -5.019531 9.203125 -8.003906 6.984375 -11.796875 C 4.765625 -15.585938 3.65625 -19.847656 3.65625 -24.578125 C 3.65625 -29.296875 4.765625 -33.550781 6.984375 -37.34375 C 9.203125 -41.132812 12.289062 -44.117188 16.25 -46.296875 C 20.207031 -48.472656 24.617188 -49.5625 29.484375 -49.5625 C 34.347656 -49.5625 38.734375 -48.484375 42.640625 -46.328125 C 46.554688 -44.179688 49.632812 -41.195312 51.875 -37.375 C 54.125 -33.5625 55.25 -29.296875 55.25 -24.578125 C 55.25 -19.847656 54.125 -15.570312 51.875 -11.75 C 49.632812 -7.9375 46.554688 -4.953125 42.640625 -2.796875 C 38.734375 -0.648438 34.347656 0.421875 29.484375 0.421875 Z M 29.484375 -4.21875 C 33.367188 -4.21875 36.878906 -5.09375 40.015625 -6.84375 C 43.148438 -8.601562 45.609375 -11.035156 47.390625 -14.140625 C 49.171875 -17.253906 50.0625 -20.734375 50.0625 -24.578125 C 50.0625 -28.410156 49.171875 -31.882812 47.390625 -35 C 45.609375 -38.113281 43.148438 -40.546875 40.015625 -42.296875 C 36.878906 -44.054688 33.367188 -44.9375 29.484375 -44.9375 C 25.597656 -44.9375 22.078125 -44.054688 18.921875 -42.296875 C 15.765625 -40.546875 13.285156 -38.113281 11.484375 -35 C 9.679688 -31.882812 8.78125 -28.410156 8.78125 -24.578125 C 8.78125 -20.734375 9.679688 -17.253906 11.484375 -14.140625 C 13.285156 -11.035156 15.765625 -8.601562 18.921875 -6.84375 C 22.078125 -5.09375 25.597656 -4.21875 29.484375 -4.21875 Z M 23.234375 -54.765625 C 22.390625 -54.765625 21.675781 -55.039062 21.09375 -55.59375 C 20.507812 -56.15625 20.21875 -56.882812 20.21875 -57.78125 C 20.21875 -58.625 20.507812 -59.335938 21.09375 -59.921875 C 21.675781 -60.503906 22.390625 -60.796875 23.234375 -60.796875 C 24.035156 -60.796875 24.738281 -60.503906 25.34375 -59.921875 C 25.945312 -59.335938 26.25 -58.625 26.25 -57.78125 C 26.25 -56.9375 25.957031 -56.222656 25.375 -55.640625 C 24.789062 -55.054688 24.078125 -54.765625 23.234375 -54.765625 Z M 35.734375 -54.765625 C 34.890625 -54.765625 34.175781 -55.054688 33.59375 -55.640625 C 33.007812 -56.222656 32.71875 -56.9375 32.71875 -57.78125 C 32.71875 -58.625 33.019531 -59.335938 33.625 -59.921875 C 34.238281 -60.503906 34.941406 -60.796875 35.734375 -60.796875 C 36.578125 -60.796875 37.289062 -60.503906 37.875 -59.921875 C 38.457031 -59.335938 38.75 -58.625 38.75 -57.78125 C 38.75 -56.882812 38.457031 -56.15625 37.875 -55.59375 C 37.289062 -55.039062 36.578125 -54.765625 35.734375 -54.765625 Z M 35.734375 -54.765625 "/></g></g></g><g fill="#000000" fill-opacity="1"><g transform="translate(150.443911, 1295.320388)"><g><path d="M 41.5625 0 L 30.328125 -15.796875 C 29.066406 -15.648438 27.753906 -15.578125 26.390625 -15.578125 L 13.203125 -15.578125 L 13.203125 0 L 8 0 L 8 -49.140625 L 26.390625 -49.140625 C 32.660156 -49.140625 37.570312 -47.640625 41.125 -44.640625 C 44.6875 -41.648438 46.46875 -37.535156 46.46875 -32.296875 C 46.46875 -28.453125 45.492188 -25.207031 43.546875 -22.5625 C 41.609375 -19.925781 38.835938 -18.019531 35.234375 -16.84375 L 47.25 0 Z M 26.25 -20.015625 C 31.125 -20.015625 34.847656 -21.085938 37.421875 -23.234375 C 39.992188 -25.390625 41.28125 -28.410156 41.28125 -32.296875 C 41.28125 -36.273438 39.992188 -39.328125 37.421875 -41.453125 C 34.847656 -43.585938 31.125 -44.65625 26.25 -44.65625 L 13.203125 -44.65625 L 13.203125 -20.015625 Z M 26.25 -20.015625 "/></g></g></g><g fill="#000000" fill-opacity="1"><g transform="translate(214.4635, 1295.320388)"><g/></g></g><g fill="#000000" fill-opacity="1"><g transform="translate(246.127103, 1295.320388)"><g><path d="M 23.234375 -23.09375 L 13.203125 -12.921875 L 13.203125 0 L 8 0 L 8 -49.140625 L 13.203125 -49.140625 L 13.203125 -19.453125 L 42.046875 -49.140625 L 48.015625 -49.140625 L 26.75 -26.890625 L 49.5 0 L 43.3125 0 Z M 23.234375 -23.09375 "/></g></g></g><g fill="#000000" fill-opacity="1"><g transform="translate(309.304476, 1295.320388)"><g><path d="M 29.484375 0.421875 C 24.617188 0.421875 20.207031 -0.664062 16.25 -2.84375 C 12.289062 -5.019531 9.203125 -8.003906 6.984375 -11.796875 C 4.765625 -15.585938 3.65625 -19.847656 3.65625 -24.578125 C 3.65625 -29.296875 4.765625 -33.550781 6.984375 -37.34375 C 9.203125 -41.132812 12.289062 -44.117188 16.25 -46.296875 C 20.207031 -48.472656 24.617188 -49.5625 29.484375 -49.5625 C 34.347656 -49.5625 38.734375 -48.484375 42.640625 -46.328125 C 46.554688 -44.179688 49.632812 -41.195312 51.875 -37.375 C 54.125 -33.5625 55.25 -29.296875 55.25 -24.578125 C 55.25 -19.847656 54.125 -15.570312 51.875 -11.75 C 49.632812 -7.9375 46.554688 -4.953125 42.640625 -2.796875 C 38.734375 -0.648438 34.347656 0.421875 29.484375 0.421875 Z M 29.484375 -4.21875 C 33.367188 -4.21875 36.878906 -5.09375 40.015625 -6.84375 C 43.148438 -8.601562 45.609375 -11.035156 47.390625 -14.140625 C 49.171875 -17.253906 50.0625 -20.734375 50.0625 -24.578125 C 50.0625 -28.410156 49.171875 -31.882812 47.390625 -35 C 45.609375 -38.113281 43.148438 -40.546875 40.015625 -42.296875 C 36.878906 -44.054688 33.367188 -44.9375 29.484375 -44.9375 C 25.597656 -44.9375 22.078125 -44.054688 18.921875 -42.296875 C 15.765625 -40.546875 13.285156 -38.113281 11.484375 -35 C 9.679688 -31.882812 8.78125 -28.410156 8.78125 -24.578125 C 8.78125 -20.734375 9.679688 -17.253906 11.484375 -14.140625 C 13.285156 -11.035156 15.765625 -8.601562 18.921875 -6.84375 C 22.078125 -5.09375 25.597656 -4.21875 29.484375 -4.21875 Z M 29.484375 -4.21875 "/></g></g></g><g fill="#000000" fill-opacity="1"><g transform="translate(381.465702, 1295.320388)"><g><path d="M 49.078125 -49.140625 L 49.078125 0 L 44.796875 0 L 13.203125 -39.875 L 13.203125 0 L 8 0 L 8 -49.140625 L 12.28125 -49.140625 L 43.953125 -9.265625 L 43.953125 -49.140625 Z M 49.078125 -49.140625 "/></g></g></g><g fill="#000000" fill-opacity="1"><g transform="translate(451.802054, 1295.320388)"><g><path d="M 17.546875 -44.65625 L 0.28125 -44.65625 L 0.28125 -49.140625 L 40.015625 -49.140625 L 40.015625 -44.65625 L 22.75 -44.65625 L 22.75 0 L 17.546875 0 Z M 17.546875 -44.65625 "/></g></g></g><g fill="#000000" fill-opacity="1"><g transform="translate(505.363852, 1295.320388)"><g><path d="M 8 -49.140625 L 13.203125 -49.140625 L 13.203125 0 L 8 0 Z M 8 -49.140625 "/></g></g></g><g fill="#000000" fill-opacity="1"><g transform="translate(539.834943, 1295.320388)"><g><path d="M 49.078125 -49.140625 L 49.078125 0 L 44.796875 0 L 13.203125 -39.875 L 13.203125 0 L 8 0 L 8 -49.140625 L 12.28125 -49.140625 L 43.953125 -9.265625 L 43.953125 -49.140625 Z M 49.078125 -49.140625 "/></g></g></g><g fill="#000000" fill-opacity="1"><g transform="translate(610.171295, 1295.320388)"><g><path d="M 27.796875 0.421875 C 21.429688 0.421875 16.46875 -1.398438 12.90625 -5.046875 C 9.351562 -8.703125 7.578125 -14.015625 7.578125 -20.984375 L 7.578125 -49.140625 L 12.78125 -49.140625 L 12.78125 -21.203125 C 12.78125 -15.492188 14.066406 -11.234375 16.640625 -8.421875 C 19.210938 -5.617188 22.929688 -4.21875 27.796875 -4.21875 C 32.710938 -4.21875 36.457031 -5.617188 39.03125 -8.421875 C 41.601562 -11.234375 42.890625 -15.492188 42.890625 -21.203125 L 42.890625 -49.140625 L 47.953125 -49.140625 L 47.953125 -20.984375 C 47.953125 -14.015625 46.179688 -8.703125 42.640625 -5.046875 C 39.109375 -1.398438 34.160156 0.421875 27.796875 0.421875 Z M 27.796875 0.421875 "/></g></g></g><g fill="#000000" fill-opacity="1"><g transform="translate(679.033718, 1295.320388)"><g><path d="M 42.75 -4.5 L 42.75 0 L 8 0 L 8 -49.140625 L 41.703125 -49.140625 L 41.703125 -44.65625 L 13.203125 -44.65625 L 13.203125 -27.171875 L 38.609375 -27.171875 L 38.609375 -22.75 L 13.203125 -22.75 L 13.203125 -4.5 Z M 42.75 -4.5 "/></g></g></g><g fill="#000000" fill-opacity="1"><g transform="translate(739.263197, 1295.320388)"><g><path d="M 41.5625 0 L 30.328125 -15.796875 C 29.066406 -15.648438 27.753906 -15.578125 26.390625 -15.578125 L 13.203125 -15.578125 L 13.203125 0 L 8 0 L 8 -49.140625 L 26.390625 -49.140625 C 32.660156 -49.140625 37.570312 -47.640625 41.125 -44.640625 C 44.6875 -41.648438 46.46875 -37.535156 46.46875 -32.296875 C 46.46875 -28.453125 45.492188 -25.207031 43.546875 -22.5625 C 41.609375 -19.925781 38.835938 -18.019531 35.234375 -16.84375 L 47.25 0 Z M 26.25 -20.015625 C 31.125 -20.015625 34.847656 -21.085938 37.421875 -23.234375 C 39.992188 -25.390625 41.28125 -28.410156 41.28125 -32.296875 C 41.28125 -36.273438 39.992188 -39.328125 37.421875 -41.453125 C 34.847656 -43.585938 31.125 -44.65625 26.25 -44.65625 L 13.203125 -44.65625 L 13.203125 -20.015625 Z M 26.25 -20.015625 "/></g></g></g><g fill="#000000" fill-opacity="1"><g transform="translate(803.282758, 1295.320388)"><g><path d="M 8 -49.140625 L 13.203125 -49.140625 L 13.203125 -4.5 L 40.71875 -4.5 L 40.71875 0 L 8 0 Z M 8 -49.140625 "/></g></g></g><g fill="#000000" fill-opacity="1"><g transform="translate(857.897336, 1295.320388)"><g><path d="M 8 -49.140625 L 13.203125 -49.140625 L 13.203125 0 L 8 0 Z M 8 -49.140625 "/></g></g></g><g fill="#000000" fill-opacity="1"><g transform="translate(892.368389, 1295.320388)"><g><path d="M 42.609375 -24.578125 L 47.59375 -24.578125 L 47.59375 -5.828125 C 45.300781 -3.816406 42.585938 -2.269531 39.453125 -1.1875 C 36.316406 -0.113281 33.019531 0.421875 29.5625 0.421875 C 24.644531 0.421875 20.21875 -0.648438 16.28125 -2.796875 C 12.351562 -4.953125 9.265625 -7.9375 7.015625 -11.75 C 4.773438 -15.570312 3.65625 -19.847656 3.65625 -24.578125 C 3.65625 -29.296875 4.773438 -33.5625 7.015625 -37.375 C 9.265625 -41.195312 12.351562 -44.179688 16.28125 -46.328125 C 20.21875 -48.484375 24.664062 -49.5625 29.625 -49.5625 C 33.363281 -49.5625 36.800781 -48.960938 39.9375 -47.765625 C 43.082031 -46.578125 45.726562 -44.8125 47.875 -42.46875 L 44.65625 -39.171875 C 40.769531 -43.015625 35.832031 -44.9375 29.84375 -44.9375 C 25.863281 -44.9375 22.269531 -44.054688 19.0625 -42.296875 C 15.851562 -40.546875 13.335938 -38.113281 11.515625 -35 C 9.691406 -31.882812 8.78125 -28.410156 8.78125 -24.578125 C 8.78125 -20.734375 9.691406 -17.265625 11.515625 -14.171875 C 13.335938 -11.085938 15.835938 -8.65625 19.015625 -6.875 C 22.203125 -5.101562 25.785156 -4.21875 29.765625 -4.21875 C 34.816406 -4.21875 39.097656 -5.476562 42.609375 -8 Z M 42.609375 -24.578125 "/></g></g></g><g fill="#000000" fill-opacity="1"><g transform="translate(959.897291, 1295.320388)"><g><path d="M 17.546875 -44.65625 L 0.28125 -44.65625 L 0.28125 -49.140625 L 40.015625 -49.140625 L 40.015625 -44.65625 L 22.75 -44.65625 L 22.75 0 L 17.546875 0 Z M 17.546875 -44.65625 "/></g></g></g><g fill="#000000" fill-opacity="1"><g transform="translate(1013.459052, 1295.320388)"><g/></g></g><g fill="#000000" fill-opacity="1"><g transform="translate(1045.122619, 1295.320388)"><g><path d="M 8 -49.140625 L 13.203125 -49.140625 L 13.203125 -4.5 L 40.71875 -4.5 L 40.71875 0 L 8 0 Z M 8 -49.140625 "/></g></g></g><g fill="#000000" fill-opacity="1"><g transform="translate(1099.737197, 1295.320388)"><g><path d="M 38.828125 -13.125 L 11.4375 -13.125 L 5.546875 0 L 0.140625 0 L 22.609375 -49.140625 L 27.734375 -49.140625 L 50.1875 0 L 44.71875 0 Z M 36.921875 -17.34375 L 25.125 -43.734375 L 13.34375 -17.34375 Z M 18.953125 -54.765625 C 18.109375 -54.765625 17.394531 -55.039062 16.8125 -55.59375 C 16.226562 -56.15625 15.9375 -56.882812 15.9375 -57.78125 C 15.9375 -58.625 16.226562 -59.335938 16.8125 -59.921875 C 17.394531 -60.503906 18.109375 -60.796875 18.953125 -60.796875 C 19.753906 -60.796875 20.457031 -60.503906 21.0625 -59.921875 C 21.664062 -59.335938 21.96875 -58.625 21.96875 -57.78125 C 21.96875 -56.9375 21.675781 -56.222656 21.09375 -55.640625 C 20.507812 -55.054688 19.796875 -54.765625 18.953125 -54.765625 Z M 31.453125 -54.765625 C 30.609375 -54.765625 29.894531 -55.054688 29.3125 -55.640625 C 28.726562 -56.222656 28.4375 -56.9375 28.4375 -57.78125 C 28.4375 -58.625 28.738281 -59.335938 29.34375 -59.921875 C 29.957031 -60.503906 30.660156 -60.796875 31.453125 -60.796875 C 32.296875 -60.796875 33.007812 -60.503906 33.59375 -59.921875 C 34.175781 -59.335938 34.46875 -58.625 34.46875 -57.78125 C 34.46875 -56.882812 34.175781 -56.15625 33.59375 -55.59375 C 33.007812 -55.039062 32.296875 -54.765625 31.453125 -54.765625 Z M 31.453125 -54.765625 "/></g></g></g><g fill="#000000" fill-opacity="1"><g transform="translate(1163.335646, 1295.320388)"><g><path d="M 41.5625 0 L 30.328125 -15.796875 C 29.066406 -15.648438 27.753906 -15.578125 26.390625 -15.578125 L 13.203125 -15.578125 L 13.203125 0 L 8 0 L 8 -49.140625 L 26.390625 -49.140625 C 32.660156 -49.140625 37.570312 -47.640625 41.125 -44.640625 C 44.6875 -41.648438 46.46875 -37.535156 46.46875 -32.296875 C 46.46875 -28.453125 45.492188 -25.207031 43.546875 -22.5625 C 41.609375 -19.925781 38.835938 -18.019531 35.234375 -16.84375 L 47.25 0 Z M 26.25 -20.015625 C 31.125 -20.015625 34.847656 -21.085938 37.421875 -23.234375 C 39.992188 -25.390625 41.28125 -28.410156 41.28125 -32.296875 C 41.28125 -36.273438 39.992188 -39.328125 37.421875 -41.453125 C 34.847656 -43.585938 31.125 -44.65625 26.25 -44.65625 L 13.203125 -44.65625 L 13.203125 -20.015625 Z M 26.25 -20.015625 "/></g></g></g><g fill="#000000" fill-opacity="1"><g transform="translate(1227.355207, 1295.320388)"><g><path d="M 38.828125 -13.125 L 11.4375 -13.125 L 5.546875 0 L 0.140625 0 L 22.609375 -49.140625 L 27.734375 -49.140625 L 50.1875 0 L 44.71875 0 Z M 36.921875 -17.34375 L 25.125 -43.734375 L 13.34375 -17.34375 Z M 36.921875 -17.34375 "/></g></g></g><g fill="#000000" fill-opacity="1"><g transform="translate(1290.953729, 1295.320388)"><g><path d="M 49.078125 -49.140625 L 49.078125 0 L 44.796875 0 L 13.203125 -39.875 L 13.203125 0 L 8 0 L 8 -49.140625 L 12.28125 -49.140625 L 43.953125 -9.265625 L 43.953125 -49.140625 Z M 49.078125 -49.140625 "/></g></g></g><g fill="#000000" fill-opacity="1"><g transform="translate(1361.290045, 1295.320388)"><g><path d="M 8 -49.140625 L 28.015625 -49.140625 C 33.203125 -49.140625 37.785156 -48.097656 41.765625 -46.015625 C 45.742188 -43.929688 48.832031 -41.03125 51.03125 -37.3125 C 53.238281 -33.59375 54.34375 -29.347656 54.34375 -24.578125 C 54.34375 -19.796875 53.238281 -15.546875 51.03125 -11.828125 C 48.832031 -8.109375 45.742188 -5.207031 41.765625 -3.125 C 37.785156 -1.039062 33.203125 0 28.015625 0 L 8 0 Z M 27.734375 -4.5 C 32.035156 -4.5 35.800781 -5.351562 39.03125 -7.0625 C 42.257812 -8.769531 44.765625 -11.128906 46.546875 -14.140625 C 48.328125 -17.160156 49.21875 -20.640625 49.21875 -24.578125 C 49.21875 -28.503906 48.328125 -31.976562 46.546875 -35 C 44.765625 -38.019531 42.257812 -40.382812 39.03125 -42.09375 C 35.800781 -43.800781 32.035156 -44.65625 27.734375 -44.65625 L 13.203125 -44.65625 L 13.203125 -4.5 Z M 27.734375 -4.5 "/></g></g></g><g fill="#000000" fill-opacity="1"><g transform="translate(1432.538879, 1295.320388)"><g><path d="M 42.75 -4.5 L 42.75 0 L 8 0 L 8 -49.140625 L 41.703125 -49.140625 L 41.703125 -44.65625 L 13.203125 -44.65625 L 13.203125 -27.171875 L 38.609375 -27.171875 L 38.609375 -22.75 L 13.203125 -22.75 L 13.203125 -4.5 Z M 42.75 -4.5 "/></g></g></g><g clip-path="url(#a4fe752647)"><path fill="#000000" d="M 569.636719 675.671875 L 611.128906 700.753906 L 600.117188 653.480469 L 636.777344 621.671875 L 588.503906 617.570312 L 569.636719 572.984375 L 550.765625 617.570312 L 502.492188 621.671875 L 539.152344 653.480469 L 528.140625 700.753906 Z M 569.636719 675.671875 " fill-opacity="1" fill-rule="nonzero"/></g><g clip-path="url(#de48a165ca)"><path fill="#000000" d="M 887.003906 679.285156 L 930.125 705.25 L 918.679688 656.316406 L 956.773438 623.386719 L 906.613281 619.144531 L 887.003906 572.988281 L 867.398438 619.144531 L 817.238281 623.386719 L 855.332031 656.316406 L 843.886719 705.25 Z M 887.003906 679.285156 " fill-opacity="1" fill-rule="nonzero"/></g></svg>